<?xml version="1.0" encoding="UTF-8" standalone="no"?> <!-- Created with Inkscape (http://www.inkscape.org/) --> <svg width="512" height="512" viewBox="0 0 512 512" version="1.1" id="svg1" xmlns="http://www.w3.org/2000/svg" xmlns:svg="http://www.w3.org/2000/svg"> <style id="style1"> :root { color: black; } @media (prefers-color-scheme: dark) { :root { color: white; } } </style> <defs id="defs1" /> <path fill="currentColor" style="stroke-width:6.96981" d="m 286.81516,293.89612 c -23.11228,-24.81781 28.59224,-49.52279 36.06573,-59.48263 14.89548,-19.85103 55.26885,-40.03525 79.40016,-58.79138 24.13131,-18.75613 64.35317,-54.44685 65.55193,-53.45257 4.98645,4.13587 -1.61625,26.48926 -17.69022,35.02682 15.07571,-9.51164 27.9052,-17.41979 28.2648,-15.94933 1.12715,6.80709 -3.59016,18.48579 -19.94953,28.96195 7.25253,-3.58337 20.49203,-13.66355 20.70899,-12.17305 1.47775,9.85609 -1.26987,18.74123 -15.34372,25.49406 5.24592,-2.42483 16.46512,-9.31571 16.62221,-8.23464 0.81869,7.22496 -7.53086,17.25787 -21.6495,21.47548 4.85419,-1.00552 14.87152,-4.68635 15.03914,-3.58028 0.92023,8.16137 -14.22482,14.19753 -25.66295,15.59428 4.78225,0.0604 16.39959,-2.89477 16.35837,-1.79014 -0.99308,8.5358 -17.33424,13.19449 -26.6455,13.26769 5.3827,0.60282 16.98701,-0.24932 16.88605,0.71606 -0.76788,5.18026 -18.81821,9.94162 -22.4213,9.07728 4.3534,0.93257 15.57544,-0.34184 14.76981,1.30552 -4.64359,8.61372 -10.19991,9.87156 -21.49121,9.20759 1.59623,0.23859 12.97419,0.91655 12.78434,1.89127 -1.92854,9.33726 -16.43472,2.16745 -25.49794,4.34109 5.70677,0.7428 17.22875,0.86174 17.1499,2.14817 -0.94308,7.63389 -21.39997,6.2628 -31.9252,7.8766 6.25571,1.38575 19.32874,1.97129 18.99681,3.22226 -1.8969,5.94551 -16.48218,7.22611 -29.28676,6.44449 5.58939,1.59659 17.24947,3.39049 16.88606,4.65436 -2.36881,7.4559 -19.83777,3.82275 -30.07829,5.37043 4.66556,1.83522 14.3256,4.08514 14.24762,4.65436 -0.99144,6.19589 -18.35507,4.07576 -29.02291,1.79014 5.92295,2.20159 19.02918,5.08851 18.46912,6.08647 -6.69885,10.02849 -18.53259,2.75738 -28.49522,1.79015 5.28584,1.96003 16.76731,4.60737 16.35837,5.37041 -3.34286,5.58146 -16.62015,3.82515 -26.12062,4.65436 5.25577,1.99405 17.03079,4.39936 16.09452,5.72845 -5.03591,6.27551 -16.8086,2.06515 -25.59292,2.50619 3.25371,2.26768 10.0739,6.27394 9.76225,6.80253 -2.89257,4.94079 -13.98421,0.0494 -21.63526,-0.71607 2.01257,2.98357 7.00719,8.39502 6.06843,8.9507 -3.96485,1.86458 -9.8282,-1.13699 -17.1499,-7.87661 z m -61.63032,0 C 248.29712,269.07831 196.5926,244.37333 189.11911,234.41349 174.22363,214.56246 133.85026,194.37824 109.71895,175.62211 85.58764,156.86598 45.36578,121.17526 44.16702,122.16954 c -4.98645,4.13587 1.61625,26.48926 17.69022,35.02682 -15.07571,-9.51164 -27.9052,-17.41979 -28.2648,-15.94933 -1.12715,6.80709 3.59016,18.48579 19.94953,28.96195 -7.25253,-3.58337 -20.49203,-13.66355 -20.70899,-12.17305 -1.47775,9.85609 1.26987,18.74123 15.34372,25.49406 -5.24592,-2.42483 -16.46512,-9.31571 -16.62221,-8.23464 -0.81869,7.22496 7.53086,17.25787 21.6495,21.47548 -4.85419,-1.00552 -14.87152,-4.68635 -15.03914,-3.58028 -0.92023,8.16137 14.22482,14.19753 25.66295,15.59428 -4.78225,0.0604 -16.39959,-2.89477 -16.35837,-1.79014 0.99308,8.5358 17.33424,13.19449 26.6455,13.26769 -5.3827,0.60282 -16.98701,-0.24932 -16.88605,0.71606 0.76788,5.18026 18.81821,9.94162 22.4213,9.07728 -4.3534,0.93257 -15.57544,-0.34184 -14.76981,1.30552 4.64359,8.61372 10.19991,9.87156 21.49121,9.20759 -1.59623,0.23859 -12.97419,0.91655 -12.78434,1.89127 1.92854,9.33726 16.43472,2.16745 25.49794,4.34109 -5.70677,0.7428 -17.22875,0.86174 -17.1499,2.14817 0.94308,7.63389 21.39997,6.2628 31.9252,7.8766 -6.25571,1.38575 -19.32874,1.97129 -18.99681,3.22226 1.8969,5.94551 16.48218,7.22611 29.28676,6.44449 -5.58939,1.59659 -17.24947,3.39049 -16.88606,4.65436 2.36881,7.4559 19.83777,3.82275 30.07829,5.37043 -4.66556,1.83522 -14.3256,4.08514 -14.24762,4.65436 0.99144,6.19589 18.35507,4.07576 29.02291,1.79014 -5.92295,2.20159 -19.02918,5.08851 -18.46912,6.08647 6.69885,10.02849 18.53259,2.75738 28.49522,1.79015 -5.28584,1.96003 -16.76731,4.60737 -16.35837,5.37041 3.34286,5.58146 16.62015,3.82515 26.12062,4.65436 -5.25577,1.99405 -17.03079,4.39936 -16.09452,5.72845 5.03591,6.27551 16.8086,2.06515 25.59292,2.50619 -3.25371,2.26768 -10.0739,6.27394 -9.76225,6.80253 2.89257,4.94079 13.98421,0.0494 21.63526,-0.71607 -2.01257,2.98357 -7.00719,8.39502 -6.06843,8.9507 3.96485,1.86458 9.8282,-1.13699 17.1499,-7.87661 z" id="path8" /> <path id="path1-8" style="fill:currentColor;stroke-width:4.25197" d="M 308.5,294.5 A 52.5,52.5 0 0 1 256,347 52.5,52.5 0 0 1 203.5,294.5 52.5,52.5 0 0 1 256,242 a 52.5,52.5 0 0 1 52.5,52.5 z" /> <path id="path1" style="fill:currentColor;stroke-width:4.43599" d="m 316,256 a 60,50 0 0 1 -60,50 60,50 0 0 1 -60,-50 60,50 0 0 1 60,-50 60,50 0 0 1 60,50 z" /> <path fill="currentColor" style="stroke-width:9.3548" d="m 255.99998,318.28382 c 27.62834,15.45031 81.02812,51.35181 79.54693,54.72801 -0.55468,0.93353 -2.70041,2.3918 -8.07947,2.38543 1.99489,3.17589 2.08186,5.30694 0.95231,6.73517 -1.61004,1.86132 -7.30908,1.15534 -8.9677,0.0327 1.56611,2.01787 1.32969,5.35492 -0.53932,6.83355 -2.41344,1.51946 -5.24907,0.41229 -10.59318,-1.55497 -2.07996,3.68655 -3.39313,6.82022 -5.9303,7.42043 -2.98083,0.49921 -6.59131,-2.10597 -9.90835,-4.70675 -0.80034,3.94886 -4.30589,6.97743 -6.74817,8.09716 -1.60226,0.48442 -9.90076,0.87677 -13.16196,-4.78063 -2.07129,3.59503 -5.5776,5.82025 -7.52167,6.55776 -3.79328,1.32425 -6.83133,-2.85898 -9.04912,-7.0156 z m 3e-5,0 c -27.62834,15.45031 -81.02811,51.35181 -79.54692,54.72801 0.55468,0.93353 2.70041,2.3918 8.07947,2.38543 -1.99489,3.17589 -2.08186,5.30694 -0.95232,6.73517 1.61005,1.86132 7.30908,1.15534 8.9677,0.0327 -1.5661,2.01787 -1.32969,5.35492 0.53933,6.83355 2.41344,1.51946 5.24907,0.41229 10.59318,-1.55497 2.07996,3.68655 3.39312,6.82022 5.9303,7.42043 2.98083,0.49921 6.5913,-2.10597 9.90834,-4.70675 0.80035,3.94886 4.30589,6.97743 6.74818,8.09716 1.60226,0.48442 9.90076,0.87677 13.16196,-4.78063 2.07129,3.59503 5.5776,5.82025 7.52167,6.55776 3.79328,1.32425 6.83133,-2.85898 9.04911,-7.0156 z" id="path5" /> </svg>