<?xml version="1.0" encoding="UTF-8" standalone="no"?>
<!-- Created with Inkscape (http://www.inkscape.org/) -->

<svg
   width="512"
   height="512"
   viewBox="0 0 512 512"
   version="1.1"
   id="svg1"
   xmlns="http://www.w3.org/2000/svg"
   xmlns:svg="http://www.w3.org/2000/svg">
  <defs
     id="defs1" />
  <g
     id="layer1">
    <path
       style="fill:#ffffff;stroke-width:6.96981"
       d="m 286.81516,293.89612 c -23.11228,-24.81781 28.59224,-49.52279 36.06573,-59.48263 14.89548,-19.85103 55.26885,-40.03525 79.40016,-58.79138 24.13131,-18.75613 64.35317,-54.44685 65.55193,-53.45257 4.98645,4.13587 -1.61625,26.48926 -17.69022,35.02682 15.07571,-9.51164 27.9052,-17.41979 28.2648,-15.94933 1.12715,6.80709 -3.59016,18.48579 -19.94953,28.96195 7.25253,-3.58337 20.49203,-13.66355 20.70899,-12.17305 1.47775,9.85609 -1.26987,18.74123 -15.34372,25.49406 5.24592,-2.42483 16.46512,-9.31571 16.62221,-8.23464 0.81869,7.22496 -7.53086,17.25787 -21.6495,21.47548 4.85419,-1.00552 14.87152,-4.68635 15.03914,-3.58028 0.92023,8.16137 -14.22482,14.19753 -25.66295,15.59428 4.78225,0.0604 16.39959,-2.89477 16.35837,-1.79014 -0.99308,8.5358 -17.33424,13.19449 -26.6455,13.26769 5.3827,0.60282 16.98701,-0.24932 16.88605,0.71606 -0.76788,5.18026 -18.81821,9.94162 -22.4213,9.07728 4.3534,0.93257 15.57544,-0.34184 14.76981,1.30552 -4.64359,8.61372 -10.19991,9.87156 -21.49121,9.20759 1.59623,0.23859 12.97419,0.91655 12.78434,1.89127 -1.92854,9.33726 -16.43472,2.16745 -25.49794,4.34109 5.70677,0.7428 17.22875,0.86174 17.1499,2.14817 -0.94308,7.63389 -21.39997,6.2628 -31.9252,7.8766 6.25571,1.38575 19.32874,1.97129 18.99681,3.22226 -1.8969,5.94551 -16.48218,7.22611 -29.28676,6.44449 5.58939,1.59659 17.24947,3.39049 16.88606,4.65436 -2.36881,7.4559 -19.83777,3.82275 -30.07829,5.37043 4.66556,1.83522 14.3256,4.08514 14.24762,4.65436 -0.99144,6.19589 -18.35507,4.07576 -29.02291,1.79014 5.92295,2.20159 19.02918,5.08851 18.46912,6.08647 -6.69885,10.02849 -18.53259,2.75738 -28.49522,1.79015 5.28584,1.96003 16.76731,4.60737 16.35837,5.37041 -3.34286,5.58146 -16.62015,3.82515 -26.12062,4.65436 5.25577,1.99405 17.03079,4.39936 16.09452,5.72845 -5.03591,6.27551 -16.8086,2.06515 -25.59292,2.50619 3.25371,2.26768 10.0739,6.27394 9.76225,6.80253 -2.89257,4.94079 -13.98421,0.0494 -21.63526,-0.71607 2.01257,2.98357 7.00719,8.39502 6.06843,8.9507 -3.96485,1.86458 -9.8282,-1.13699 -17.1499,-7.87661 z m -61.63032,0 C 248.29712,269.07831 196.5926,244.37333 189.11911,234.41349 174.22363,214.56246 133.85026,194.37824 109.71895,175.62211 85.58764,156.86598 45.36578,121.17526 44.16702,122.16954 c -4.98645,4.13587 1.61625,26.48926 17.69022,35.02682 -15.07571,-9.51164 -27.9052,-17.41979 -28.2648,-15.94933 -1.12715,6.80709 3.59016,18.48579 19.94953,28.96195 -7.25253,-3.58337 -20.49203,-13.66355 -20.70899,-12.17305 -1.47775,9.85609 1.26987,18.74123 15.34372,25.49406 -5.24592,-2.42483 -16.46512,-9.31571 -16.62221,-8.23464 -0.81869,7.22496 7.53086,17.25787 21.6495,21.47548 -4.85419,-1.00552 -14.87152,-4.68635 -15.03914,-3.58028 -0.92023,8.16137 14.22482,14.19753 25.66295,15.59428 -4.78225,0.0604 -16.39959,-2.89477 -16.35837,-1.79014 0.99308,8.5358 17.33424,13.19449 26.6455,13.26769 -5.3827,0.60282 -16.98701,-0.24932 -16.88605,0.71606 0.76788,5.18026 18.81821,9.94162 22.4213,9.07728 -4.3534,0.93257 -15.57544,-0.34184 -14.76981,1.30552 4.64359,8.61372 10.19991,9.87156 21.49121,9.20759 -1.59623,0.23859 -12.97419,0.91655 -12.78434,1.89127 1.92854,9.33726 16.43472,2.16745 25.49794,4.34109 -5.70677,0.7428 -17.22875,0.86174 -17.1499,2.14817 0.94308,7.63389 21.39997,6.2628 31.9252,7.8766 -6.25571,1.38575 -19.32874,1.97129 -18.99681,3.22226 1.8969,5.94551 16.48218,7.22611 29.28676,6.44449 -5.58939,1.59659 -17.24947,3.39049 -16.88606,4.65436 2.36881,7.4559 19.83777,3.82275 30.07829,5.37043 -4.66556,1.83522 -14.3256,4.08514 -14.24762,4.65436 0.99144,6.19589 18.35507,4.07576 29.02291,1.79014 -5.92295,2.20159 -19.02918,5.08851 -18.46912,6.08647 6.69885,10.02849 18.53259,2.75738 28.49522,1.79015 -5.28584,1.96003 -16.76731,4.60737 -16.35837,5.37041 3.34286,5.58146 16.62015,3.82515 26.12062,4.65436 -5.25577,1.99405 -17.03079,4.39936 -16.09452,5.72845 5.03591,6.27551 16.8086,2.06515 25.59292,2.50619 -3.25371,2.26768 -10.0739,6.27394 -9.76225,6.80253 2.89257,4.94079 13.98421,0.0494 21.63526,-0.71607 -2.01257,2.98357 -7.00719,8.39502 -6.06843,8.9507 3.96485,1.86458 9.8282,-1.13699 17.1499,-7.87661 z"
       id="path8" />
    <circle
       style="fill:#ffffff;stroke-width:4.25197"
       id="path1-8"
       cx="256"
       cy="294.5"
       r="52.5" />
    <ellipse
       style="fill:#ffffff;stroke-width:4.43599"
       id="path1"
       cx="256"
       cy="256"
       rx="60"
       ry="50" />
    <path
       style="fill:#ffffff;stroke-width:5.66929"
       d="m 261.01078,354.9676 c 17.00143,9.22136 49.86162,30.64881 48.95015,32.66386 -0.34133,0.55717 -1.66173,1.42752 -4.9718,1.42372 1.22758,1.8955 1.2811,3.16739 0.58602,4.01982 -0.99076,1.11091 -4.49773,0.68955 -5.51838,0.0195 0.96372,1.20435 0.81824,3.19603 -0.33188,4.07854 -1.48514,0.90687 -3.23008,0.24607 -6.51864,-0.92807 -1.27993,2.20028 -2.088,4.07058 -3.64928,4.42881 -1.83429,0.29795 -4.05604,-1.25693 -6.09722,-2.80918 -0.4925,2.35684 -2.64968,4.16441 -4.15257,4.83271 -0.98597,0.28912 -6.09255,0.52329 -8.09937,-2.85327 -1.27459,2.14566 -3.43224,3.47376 -4.62855,3.91393 -2.33424,0.79037 -4.20374,-1.70635 -5.56848,-4.18719 z m 2e-5,0 c -17.00143,9.22136 -49.86162,30.64881 -48.95015,32.66386 0.34133,0.55717 1.66173,1.42752 4.9718,1.42372 -1.22758,1.8955 -1.2811,3.16739 -0.58602,4.01982 0.99076,1.11091 4.49773,0.68955 5.51838,0.0195 -0.96372,1.20435 -0.81824,3.19603 0.33188,4.07854 1.48514,0.90687 3.23008,0.24607 6.51864,-0.92807 1.27993,2.20028 2.088,4.07058 3.64928,4.42881 1.83429,0.29795 4.05604,-1.25693 6.09722,-2.80918 0.4925,2.35684 2.64968,4.16441 4.15257,4.83271 0.98597,0.28912 6.09255,0.52329 8.09937,-2.85327 1.27459,2.14566 3.43224,3.47376 4.62855,3.91393 2.33424,0.79037 4.20374,-1.70635 5.56848,-4.18719 z"
       id="path5"
       transform="matrix(1.6250599,0,0,1.6754911,-168.15817,-276.46123)" />
  </g>
</svg>
